<svg width="0" height="0" class="hidden">
    <symbol xmlns="http://www.w3.org/2000/svg" viewBox="0 0 58 57" id="arrow-right">
        <path
            d="M29.0274 0.821288C36.6383 0.821288 43.9375 3.77128 49.3192 9.02229C54.7009 14.2733 57.7243 21.3952 57.7243 28.8213C57.7243 36.2473 54.7009 43.3693 49.3192 48.6203C43.9375 53.8713 36.6383 56.8213 29.0274 56.8213C21.4165 56.8213 14.1173 53.8713 8.73558 48.6203C3.35386 43.3693 0.330443 36.2474 0.330443 28.8213C0.330443 21.3952 3.35386 14.2733 8.73558 9.0223C14.1173 3.77128 21.4165 0.821288 29.0274 0.821288V0.821288ZM16.4725 27.0713C15.9968 27.0713 15.5406 27.2557 15.2042 27.5839C14.8679 27.912 14.6789 28.3572 14.6789 28.8213C14.6789 29.2854 14.8679 29.7305 15.2042 30.0587C15.5406 30.3869 15.9968 30.5713 16.4725 30.5713L37.2527 30.5713L29.5511 38.0823C29.2143 38.4109 29.0251 38.8566 29.0251 39.3213C29.0251 39.786 29.2143 40.2317 29.5511 40.5603C29.8879 40.8889 30.3447 41.0735 30.8209 41.0735C31.2972 41.0735 31.754 40.8889 32.0908 40.5603L42.8521 30.0603C43.0192 29.8977 43.1517 29.7046 43.2421 29.492C43.3325 29.2794 43.3791 29.0515 43.3791 28.8213C43.3791 28.5911 43.3325 28.3632 43.2421 28.1506C43.1517 27.938 43.0192 27.7448 42.8521 27.5823L32.0908 17.0823C31.754 16.7537 31.2972 16.5691 30.8209 16.5691C30.3447 16.5691 29.8879 16.7537 29.5511 17.0823C29.2143 17.4109 29.0251 17.8566 29.0251 18.3213C29.0251 18.786 29.2143 19.2317 29.5511 19.5603L37.2526 27.0713L16.4725 27.0713Z">
        </path>
    </symbol>
    <symbol xmlns="http://www.w3.org/2000/svg" viewBox="0 0 84 85" id="chart-cambo-stacked">
        <path
            d="M75 78.5264V42.5264H51V78.5264H39V30.5264H15V78.5264H6V0.526367H0V78.5264C0 80.1177 0.632141 81.6438 1.75736 82.769C2.88258 83.8942 4.4087 84.5264 6 84.5264H84V78.5264H75ZM33 36.5264V54.5264H21V36.5264H33ZM69 48.5264V66.5264H57V48.5264H69Z">
        </path>
        <path
            d="M62.3598 36.5264C61.0861 36.5273 59.8455 36.1205 58.8198 35.3654L27.6168 12.4874L18.7278 24.5264L13.9128 20.9444L22.8588 8.9444C23.789 7.69201 25.1708 6.85164 26.7108 6.6018C28.2507 6.35196 29.8273 6.71235 31.1058 7.6064L62.3688 30.5264L73.1808 15.9464L78.0018 19.5164L67.1898 34.1024C66.6302 34.8559 65.9018 35.4677 65.063 35.8887C64.2242 36.3096 63.2983 36.5281 62.3598 36.5264Z">
        </path>
    </symbol>
    <symbol xmlns="http://www.w3.org/2000/svg" viewBox="0 0 86 85" id="connect">
        <path fill-rule="evenodd" clip-rule="evenodd"
            d="M76.8842 68.305C75.4273 68.305 74.072 68.6946 72.8748 69.3327L54.4711 50.8612C55.64 49.2236 56.4701 47.3431 56.8541 45.2932H63.2522C63.8364 46.9407 64.9192 48.3653 66.3502 49.3692C67.7811 50.3731 69.4892 50.9064 71.2372 50.8951C75.9186 50.8951 79.7078 47.2132 79.7078 42.6617C79.7078 38.1101 75.9186 34.4283 71.2372 34.4283C69.4521 34.4174 67.7098 34.9745 66.2622 36.019C64.8146 37.0636 63.7368 38.5415 63.1845 40.2391H56.8654C56.5327 38.3117 55.7976 36.4761 54.7082 34.8518L73.2871 16.2052C74.3826 16.7078 75.5911 17.0127 76.8842 17.0127C81.5657 17.0127 85.3548 13.3308 85.3548 8.77931C85.3548 4.22778 81.5657 0.545898 76.8842 0.545898C72.2085 0.545898 68.4249 4.22778 68.4249 8.77931C68.4249 10.2532 68.8485 11.6198 69.5487 12.817L51.1619 31.2772C49.4836 30.085 47.5633 29.2772 45.5374 28.9111V22.2419C48.9652 21.1915 51.4725 18.1139 51.4725 14.4264C51.4725 9.87484 47.6833 6.19296 43.0019 6.19296C38.3261 6.19296 34.5426 9.87484 34.5426 14.4264C34.5426 18.1252 37.0555 21.2198 40.5172 22.2588V28.9054C38.4617 29.2668 36.5642 30.0631 34.921 31.2094L16.5115 12.7379C17.1779 11.5577 17.5901 10.225 17.5901 8.78496C17.5901 4.23343 13.801 0.551545 9.11954 0.551545C4.44378 0.551545 0.660249 4.23343 0.660249 8.78496C0.660249 13.3365 4.44378 17.0184 9.11954 17.0184C10.441 17.0184 11.689 16.6965 12.8014 16.1713L31.352 34.7897C30.2452 36.3991 29.4885 38.2513 29.1327 40.2504H22.8193C22.2667 38.5519 21.188 37.0733 19.7393 36.0287C18.2906 34.984 16.547 34.4274 14.761 34.4395C10.0852 34.4395 6.30166 38.1214 6.30166 42.673C6.30166 47.2245 10.0852 50.9064 14.761 50.9064C18.488 50.9064 21.6221 48.5572 22.7459 45.3045H29.144C29.528 47.3883 30.392 49.297 31.5948 50.9515L13.2193 69.3948C11.9619 68.7008 10.5502 68.3338 9.1139 68.3275C4.43813 68.3275 0.654602 72.0094 0.654602 76.561C0.654602 81.1125 4.43813 84.7944 9.1139 84.7944C13.7953 84.7944 17.5845 81.1125 17.5845 76.561C17.5845 75.2847 17.2626 74.0932 16.7374 73.0259L35.2315 54.4527C36.7958 55.4918 38.5859 56.1977 40.5115 56.5365V63.0814C37.0555 64.1205 34.537 67.2094 34.537 70.9139C34.537 75.4654 38.3205 79.1473 42.9962 79.1473C47.6777 79.1473 51.4668 75.4654 51.4668 70.9139C51.4668 67.232 48.9652 64.1487 45.5318 63.0984V56.5308C47.4744 56.1807 49.2758 55.4579 50.8513 54.4019L69.3115 72.9299C68.7297 74.0521 68.4239 75.2969 68.4193 76.561C68.4193 81.1125 72.2028 84.7944 76.8786 84.7944C81.56 84.7944 85.3492 81.1125 85.3492 76.561C85.3492 72.0094 81.5657 68.305 76.8842 68.305Z">
        </path>
    </symbol>
    <symbol xmlns="http://www.w3.org/2000/svg" viewBox="0 0 49 49" id="facebook">
        <g clip-path="url(#clip0_1_454)">
            <path
                d="M24.8646 0.761719C11.6031 0.761719 0.812134 11.5497 0.812134 24.8127C0.812134 38.0757 11.6031 48.8637 24.8646 48.8637C38.1261 48.8637 48.9171 38.0757 48.9171 24.8127C48.9171 11.5497 38.1261 0.761719 24.8646 0.761719ZM24.8646 47.2617C12.4866 47.2617 2.41713 37.1907 2.41713 24.8127C2.41713 12.4347 12.4866 2.36372 24.8646 2.36372C37.2426 2.36372 47.3121 12.4347 47.3121 24.8127C47.3121 37.1907 37.2426 47.2617 24.8646 47.2617Z">
            </path>
            <path
                d="M30.1148 11.3126H26.1128C21.0158 11.2616 20.3648 14.4161 20.3648 17.8301V20.3126H18.1148C18.0131 20.299 17.9096 20.309 17.8124 20.3419C17.7152 20.3748 17.6269 20.4296 17.5544 20.5022C17.4818 20.5747 17.427 20.663 17.3941 20.7602C17.3612 20.8574 17.3512 20.9609 17.3648 21.0626V25.5626C17.3512 25.6643 17.3612 25.7677 17.3941 25.8649C17.427 25.9621 17.4818 26.0504 17.5544 26.1229C17.6269 26.1955 17.7152 26.2503 17.8124 26.2832C17.9096 26.3161 18.0131 26.3261 18.1148 26.3126H20.3648V37.5626C20.3523 37.6644 20.3632 37.7678 20.3968 37.8648C20.4304 37.9618 20.4856 38.0499 20.5584 38.1222C20.6312 38.1946 20.7196 38.2494 20.8168 38.2823C20.914 38.3153 21.0175 38.3257 21.1193 38.3126H25.7018C26.1443 38.3636 26.5028 38.0051 26.3618 37.5626L26.3648 26.3126H30.1148C30.2165 26.3261 30.3199 26.3161 30.4171 26.2832C30.5143 26.2503 30.6026 26.1955 30.6751 26.1229C30.7477 26.0504 30.8025 25.9621 30.8354 25.8649C30.8683 25.7677 30.8783 25.6643 30.8648 25.5626V21.0626C30.8783 20.9609 30.8683 20.8574 30.8354 20.7602C30.8025 20.663 30.7477 20.5747 30.6751 20.5022C30.6026 20.4296 30.5143 20.3748 30.4171 20.3419C30.3199 20.309 30.2165 20.299 30.1148 20.3126H26.3603L26.3648 18.0626C26.5103 17.1041 26.5103 17.2601 27.3998 17.3126H30.0833C30.2918 17.2661 30.5138 17.2916 30.6698 17.1401C30.8258 16.9886 30.9158 16.7816 30.8633 16.5626V12.0626C30.8771 11.9609 30.8673 11.8575 30.8346 11.7603C30.8019 11.6631 30.7472 11.5748 30.6748 11.5022C30.6023 11.4296 30.5141 11.3747 30.417 11.3418C30.3198 11.3089 30.2164 11.2989 30.1148 11.3126ZM29.3123 15.7286L27.4313 15.6566C25.1018 15.6566 24.9068 16.9211 24.9068 18.2156L24.9008 21.0596C24.9006 21.1649 24.9211 21.2692 24.9613 21.3665C25.0015 21.4639 25.0604 21.5524 25.1348 21.6269C25.2092 21.7015 25.2976 21.7606 25.3949 21.8009C25.4922 21.8413 25.5964 21.8621 25.7018 21.8621H29.3648V24.7601H25.7048C25.4922 24.7601 25.2883 24.8444 25.1378 24.9946C24.9874 25.1447 24.9027 25.3485 24.9023 25.5611L24.9008 36.8126H21.8648V25.5626C21.8648 25.1201 21.5633 24.7616 21.1193 24.7616H18.8648V21.8636H21.1193C21.2245 21.8637 21.3288 21.8431 21.426 21.803C21.5233 21.7628 21.6118 21.7039 21.6863 21.6296C21.8363 21.4781 21.8633 21.2741 21.8633 21.0611V17.8286C21.8633 14.4656 22.5428 12.8636 26.1113 12.8636H29.3108V15.7286H29.3123Z">
            </path>
        </g>
        <defs>
            <clipPath id="clip0_1_454">
                <rect width="48" height="48" transform="translate(0.864746 0.812988)"></rect>
            </clipPath>
        </defs>
    </symbol>
    <symbol xmlns="http://www.w3.org/2000/svg" viewBox="0 0 49 49" id="instagram">
        <g clip-path="url(#clip0_1_449)">
            <path
                d="M31.6488 19.5543C32.4911 19.5543 33.1738 18.8716 33.1738 18.0294C33.1738 17.1871 32.4911 16.5044 31.6488 16.5044C30.8066 16.5044 30.1239 17.1871 30.1239 18.0294C30.1239 18.8716 30.8066 19.5543 31.6488 19.5543Z">
            </path>
            <path
                d="M21.2956 19.47C22.3523 18.764 23.5946 18.3871 24.8654 18.3871C26.5696 18.3871 28.204 19.0641 29.409 20.2691C30.614 21.4741 31.291 23.1085 31.291 24.8127C31.291 26.0835 30.9142 27.3259 30.2081 28.3825C29.5021 29.4392 28.4985 30.2628 27.3244 30.7491C26.1503 31.2355 24.8583 31.3627 23.6119 31.1148C22.3654 30.8669 21.2205 30.2549 20.3219 29.3562C19.4233 28.4576 18.8113 27.3127 18.5633 26.0662C18.3154 24.8198 18.4427 23.5278 18.929 22.3537C19.4153 21.1796 20.2389 20.1761 21.2956 19.47ZM22.4565 28.4179C23.1695 28.8944 24.0079 29.1487 24.8654 29.1487C26.0154 29.1487 27.1183 28.6919 27.9315 27.8787C28.7446 27.0655 29.2015 25.9627 29.2015 24.8127C29.2015 23.9551 28.9472 23.1168 28.4707 22.4037C27.9943 21.6907 27.3171 21.1349 26.5248 20.8067C25.7325 20.4785 24.8606 20.3927 24.0195 20.56C23.1784 20.7273 22.4058 21.1403 21.7994 21.7467C21.193 22.3531 20.7801 23.1257 20.6128 23.9668C20.4454 24.8079 20.5313 25.6797 20.8595 26.472C21.1877 27.2643 21.7434 27.9415 22.4565 28.4179Z"
                stroke="#0D0D0D" stroke-width="0.2"></path>
            <path
                d="M32.3948 14.8127L32.3936 14.8123C31.6277 14.5286 30.8189 14.3786 30.0023 14.3687C28.6616 14.3072 28.2563 14.2945 24.8643 14.2945C21.4722 14.2945 21.0669 14.3072 19.7263 14.3687C18.9097 14.3786 18.1008 14.5286 17.335 14.8123L17.335 14.8123L17.3337 14.8127C16.7725 15.0292 16.2628 15.3608 15.8374 15.7862C15.4121 16.2115 15.0805 16.7212 14.864 17.2825L14.864 17.2825L14.8635 17.2837C14.5799 18.0496 14.4299 18.8584 14.42 19.675C14.3585 21.0156 14.3458 21.421 14.3458 24.813C14.3458 28.205 14.3585 28.6104 14.42 29.951C14.4299 30.7676 14.5799 31.5765 14.8635 32.3423L14.864 32.3436C15.0805 32.9048 15.4121 33.4145 15.8374 33.8398C16.2628 34.2652 16.7725 34.5968 17.3337 34.8133L17.335 34.8137C18.1008 35.0974 18.9097 35.2474 19.7263 35.2573C21.0669 35.3188 21.4722 35.3315 24.8643 35.3315C28.2563 35.3315 28.6616 35.3188 30.0023 35.2573C30.8189 35.2474 31.6277 35.0974 32.3936 34.8138L32.3948 34.8133C32.956 34.5968 33.4657 34.2652 33.8911 33.8398C34.3164 33.4145 34.648 32.9048 34.8645 32.3436L34.865 32.3423C35.1486 31.5765 35.2987 30.7676 35.3086 29.951C35.37 28.6104 35.3827 28.2072 35.3827 24.8141C35.3827 21.421 35.37 21.0156 35.3086 19.675C35.2987 18.8584 35.1486 18.0495 34.865 17.2837L34.8645 17.2825C34.648 16.7212 34.3164 16.2115 33.8911 15.7862C33.4657 15.3608 32.956 15.0292 32.3948 14.8127ZM19.6263 12.2812L19.6263 12.2812L19.6289 12.2811C20.9821 12.2198 21.4135 12.205 24.8643 12.205C28.3162 12.205 28.7453 12.2187 30.0985 12.2822L30.0985 12.2822L30.1012 12.2823C31.1439 12.3029 32.1757 12.5001 33.1525 12.8656C33.9836 13.1871 34.7384 13.6786 35.3685 14.3088C35.9987 14.9389 36.4902 15.6937 36.8117 16.5249C37.1774 17.5013 37.375 18.5326 37.3961 19.5751L37.396 19.5751L37.3961 19.5776C37.4575 20.9309 37.4723 21.3612 37.4723 24.813C37.4723 28.2648 37.4575 28.6941 37.3961 30.0474L37.3961 30.0474L37.3961 30.0499C37.3755 31.0927 37.1782 32.1245 36.8127 33.1013C36.4912 33.9324 35.9997 34.6872 35.3696 35.3173C34.7394 35.9474 33.9846 36.439 33.1534 36.7604C32.1767 37.1263 31.145 37.3239 30.1022 37.3448L30.0997 37.3449C28.7464 37.4062 28.3151 37.421 24.8643 37.421C21.4135 37.421 20.9832 37.4062 19.6299 37.3449L19.6299 37.3449L19.6274 37.3448C18.5846 37.3239 17.5529 37.1263 16.5761 36.7604C15.745 36.4389 14.9902 35.9474 14.36 35.3173C13.7299 34.6871 13.2383 33.9323 12.9169 33.1012C12.5511 32.1248 12.3535 31.0934 12.3325 30.0509L12.3325 30.0509L12.3324 30.0484C12.2711 28.6952 12.2562 28.2648 12.2562 24.813C12.2562 21.3612 12.2711 20.9319 12.3324 19.5786L12.3324 19.5787L12.3325 19.5761C12.3534 18.5333 12.551 17.5016 12.9169 16.5248C13.2383 15.6937 13.7299 14.9389 14.36 14.3088C14.9901 13.6786 15.745 13.1871 16.5761 12.8656C17.5525 12.4999 18.5839 12.3023 19.6263 12.2812Z"
                stroke="#0D0D0D" stroke-width="0.2"></path>
            <path
                d="M24.8663 0.762207C11.6048 0.762207 0.813805 11.5502 0.813805 24.8132C0.813805 38.0762 11.6048 48.8642 24.8663 48.8642C38.1278 48.8642 48.9188 38.0762 48.9188 24.8132C48.9188 11.5502 38.1278 0.762207 24.8663 0.762207ZM24.8663 47.2622C12.4883 47.2622 2.4188 37.1912 2.4188 24.8132C2.4188 12.4352 12.4883 2.36421 24.8663 2.36421C37.2443 2.36421 47.3138 12.4352 47.3138 24.8132C47.3138 37.1912 37.2443 47.2622 24.8663 47.2622Z">
            </path>
        </g>
        <defs>
            <clipPath id="clip0_1_449">
                <rect width="48" height="48" transform="translate(0.864746 0.812988)"></rect>
            </clipPath>
        </defs>
    </symbol>
    <symbol xmlns="http://www.w3.org/2000/svg" viewBox="0 0 78 78" id="tech">
        <path
            d="M56.7988 66.7646C59.451 66.7646 61.9945 65.7111 63.8699 63.8357C65.7453 61.9604 66.7988 59.4168 66.7988 56.7646C66.7988 54.1125 65.7453 51.5689 63.8699 49.6936C61.9945 47.8182 59.451 46.7646 56.7988 46.7646C54.1467 46.7646 51.6031 47.8182 49.7278 49.6936C47.8524 51.5689 46.7988 54.1125 46.7988 56.7646C46.7988 59.4168 47.8524 61.9604 49.7278 63.8357C51.6031 65.7111 54.1467 66.7646 56.7988 66.7646ZM20.7988 30.7647C23.451 30.7647 25.9945 29.7111 27.8699 27.8357C29.7453 25.9604 30.7988 23.4168 30.7988 20.7646C30.7988 18.1125 29.7453 15.5689 27.8699 13.6936C25.9945 11.8182 23.451 10.7646 20.7988 10.7646C18.1467 10.7646 15.6031 11.8182 13.7278 13.6936C11.8524 15.5689 10.7988 18.1125 10.7988 20.7646C10.7988 23.4168 11.8524 25.9604 13.7278 27.8357C15.6031 29.7111 18.1467 30.7647 20.7988 30.7647ZM12.7988 74.7646C15.451 74.7646 17.9945 73.7111 19.8699 71.8357C21.7453 69.9604 22.7988 67.4168 22.7988 64.7647C22.7988 62.1125 21.7453 59.5689 19.8699 57.6936C17.9945 55.8182 15.451 54.7646 12.7988 54.7646C10.1467 54.7646 7.60312 55.8182 5.72776 57.6936C3.8524 59.5689 2.79883 62.1125 2.79883 64.7647C2.79883 67.4168 3.8524 69.9604 5.72776 71.8357C7.60312 73.7111 10.1467 74.7646 12.7988 74.7646ZM64.7988 22.7646C67.451 22.7646 69.9945 21.7111 71.8699 19.8357C73.7453 17.9604 74.7988 15.4168 74.7988 12.7646C74.7988 10.1125 73.7453 7.56894 71.8699 5.69358C69.9945 3.81822 67.451 2.76465 64.7988 2.76465C62.1467 2.76465 59.6031 3.81822 57.7278 5.69358C55.8524 7.56894 54.7988 10.1125 54.7988 12.7646C54.7988 15.4168 55.8524 17.9604 57.7278 19.8357C59.6031 21.7111 62.1467 22.7646 64.7988 22.7646ZM38.7988 74.7646L46.7988 66.7646L38.7988 74.7646Z">
        </path>
        <path
            d="M30.7988 10.7646L38.7988 2.76465M22.7988 54.7647L54.7988 22.7646M38.7988 74.7646L46.7988 66.7647M56.7988 66.7647C59.451 66.7647 61.9945 65.7111 63.8699 63.8357C65.7453 61.9604 66.7988 59.4168 66.7988 56.7646C66.7988 54.1125 65.7453 51.5689 63.8699 49.6936C61.9945 47.8182 59.451 46.7646 56.7988 46.7646C54.1467 46.7646 51.6031 47.8182 49.7278 49.6936C47.8524 51.5689 46.7988 54.1125 46.7988 56.7646C46.7988 59.4168 47.8524 61.9604 49.7278 63.8357C51.6031 65.7111 54.1467 66.7647 56.7988 66.7647ZM20.7988 30.7647C23.451 30.7647 25.9945 29.7111 27.8699 27.8357C29.7453 25.9604 30.7988 23.4168 30.7988 20.7646C30.7988 18.1125 29.7453 15.5689 27.8699 13.6936C25.9945 11.8182 23.451 10.7646 20.7988 10.7646C18.1467 10.7646 15.6031 11.8182 13.7278 13.6936C11.8524 15.5689 10.7988 18.1125 10.7988 20.7646C10.7988 23.4168 11.8524 25.9604 13.7278 27.8357C15.6031 29.7111 18.1467 30.7647 20.7988 30.7647ZM12.7988 74.7646C15.451 74.7646 17.9945 73.7111 19.8699 71.8357C21.7453 69.9604 22.7988 67.4168 22.7988 64.7647C22.7988 62.1125 21.7453 59.5689 19.8699 57.6936C17.9945 55.8182 15.451 54.7647 12.7988 54.7647C10.1467 54.7647 7.60312 55.8182 5.72776 57.6936C3.8524 59.5689 2.79883 62.1125 2.79883 64.7647C2.79883 67.4168 3.8524 69.9604 5.72776 71.8357C7.60312 73.7111 10.1467 74.7646 12.7988 74.7646ZM64.7988 22.7646C67.451 22.7646 69.9945 21.7111 71.8699 19.8357C73.7453 17.9604 74.7988 15.4168 74.7988 12.7646C74.7988 10.1125 73.7453 7.56894 71.8699 5.69358C69.9945 3.81822 67.451 2.76465 64.7988 2.76465C62.1467 2.76465 59.6031 3.81822 57.7278 5.69358C55.8524 7.56894 54.7988 10.1125 54.7988 12.7646C54.7988 15.4168 55.8524 17.9604 57.7278 19.8357C59.6031 21.7111 62.1467 22.7646 64.7988 22.7646Z"
            stroke="#00E3A5" stroke-width="5" stroke-linecap="round" stroke-linejoin="round"></path>
    </symbol>
    <symbol xmlns="http://www.w3.org/2000/svg" viewBox="0 0 49 49" id="twitter">
        <g clip-path="url(#clip0_1_445)">
            <path
                d="M24.8646 0.761719C11.6031 0.761719 0.812134 11.5497 0.812134 24.8127C0.812134 38.0757 11.6031 48.8637 24.8646 48.8637C38.1261 48.8637 48.9171 38.0757 48.9171 24.8127C48.9171 11.5497 38.1261 0.761719 24.8646 0.761719ZM24.8646 47.2617C12.4866 47.2617 2.41713 37.1907 2.41713 24.8127C2.41713 12.4347 12.4866 2.36372 24.8646 2.36372C37.2426 2.36372 47.3121 12.4347 47.3121 24.8127C47.3121 37.1907 37.2426 47.2617 24.8646 47.2617Z">
            </path>
            <path
                d="M38.0556 17.3817C38.222 17.0737 38.3591 16.7508 38.4651 16.4172C38.5142 16.2625 38.5152 16.0965 38.4679 15.9412C38.4207 15.7858 38.3275 15.6485 38.2006 15.5473C38.0737 15.446 37.9191 15.3857 37.7571 15.3741C37.5952 15.3626 37.4336 15.4005 37.2936 15.4827C36.525 15.9393 35.6929 16.2795 34.8246 16.4922C33.7705 15.5409 32.4015 15.0135 30.9816 15.0117C30.2102 15.0123 29.4468 15.1687 28.7373 15.4714C28.0277 15.7742 27.3866 16.2171 26.8524 16.7736C26.3182 17.3301 25.9018 17.9887 25.6283 18.71C25.3548 19.4313 25.2297 20.2004 25.2606 20.9712C21.8871 20.5465 18.8066 18.8395 16.6581 16.2042C16.5758 16.1044 16.4706 16.0259 16.3514 15.9754C16.2323 15.9249 16.1027 15.9039 15.9737 15.9143C15.8447 15.9246 15.7202 15.9659 15.6105 16.0346C15.5009 16.1034 15.4095 16.1976 15.3441 16.3092C14.8521 17.1536 14.5847 18.11 14.5674 19.0871C14.5501 20.0642 14.7834 21.0294 15.2451 21.8907C15.1319 21.9098 15.0231 21.9495 14.9241 22.0077C14.8028 22.0851 14.703 22.1917 14.6338 22.3178C14.5646 22.4439 14.5282 22.5854 14.5281 22.7292C14.5281 24.4317 15.2856 25.9947 16.5066 27.0567L16.4541 27.1092C16.3619 27.2135 16.2985 27.34 16.2701 27.4762C16.2417 27.6125 16.2493 27.7538 16.2921 27.8862C16.5467 28.6805 16.9718 29.4096 17.5377 30.0223C18.1036 30.6351 18.7966 31.1168 19.5681 31.4337C17.9835 32.2067 16.2101 32.5082 14.4591 32.3022C14.2791 32.2839 14.0981 32.3258 13.9445 32.4213C13.7908 32.5169 13.6732 32.6607 13.6101 32.8302C13.5495 33.001 13.5483 33.1873 13.6069 33.3589C13.6654 33.5304 13.7802 33.6771 13.9326 33.7752C16.3131 35.303 19.0825 36.1147 21.9111 36.1137C31.1811 36.1137 36.7221 28.5837 36.7221 21.3042L36.7206 21.0582C37.619 20.3568 38.3994 19.5162 39.0321 18.5682C39.1279 18.4249 39.175 18.2545 39.1665 18.0824C39.1579 17.9102 39.0942 17.7453 38.9846 17.6122C38.8751 17.4791 38.7256 17.3848 38.5582 17.3433C38.3909 17.3018 38.2147 17.3153 38.0556 17.3817ZM35.4381 20.0142C35.3293 20.0925 35.2417 20.1968 35.1836 20.3176C35.1254 20.4384 35.0984 20.5718 35.1051 20.7057C35.1141 20.9037 35.1186 21.1047 35.1186 21.3027C35.1186 27.7947 30.1791 34.5102 21.9126 34.5102C20.4383 34.5109 18.9743 34.2634 17.5821 33.7782C19.2495 33.4587 20.8159 32.7437 22.1496 31.6932C22.2794 31.5909 22.3745 31.4509 22.4217 31.2924C22.469 31.134 22.4662 30.9648 22.4136 30.8081C22.3611 30.6513 22.2614 30.5146 22.1283 30.4166C21.9951 30.3186 21.8349 30.2642 21.6696 30.2607C21.0228 30.2484 20.388 30.0842 19.8164 29.7814C19.2447 29.4787 18.7522 29.0458 18.3786 28.5177C18.7581 28.4922 19.1301 28.4292 19.4916 28.3317C19.6666 28.2849 19.8205 28.1802 19.9283 28.0346C20.036 27.889 20.0913 27.7112 20.085 27.5302C20.0788 27.3492 20.0113 27.1757 19.8938 27.0379C19.7762 26.9002 19.6154 26.8063 19.4376 26.7717C18.7071 26.6231 18.0308 26.2787 17.481 25.7754C16.9311 25.2721 16.5285 24.6287 16.3161 23.9142C16.7151 24.0147 17.1246 24.0732 17.5341 24.0867C17.8866 24.0852 18.2136 23.8692 18.3231 23.5302C18.4326 23.1912 18.3036 22.8177 18.0051 22.6197C17.2993 22.1495 16.7559 21.4728 16.449 20.6822C16.1422 19.8916 16.0868 19.0255 16.2906 18.2022C18.8961 20.8757 22.4144 22.4677 26.1426 22.6602C26.4066 22.6617 26.6376 22.5672 26.7981 22.3737C26.9586 22.1802 27.0201 21.9237 26.9631 21.6777C26.758 20.7942 26.8497 19.8677 27.2242 19.0416C27.5987 18.2155 28.235 17.5359 29.0346 17.1079C29.8343 16.6799 30.7527 16.5273 31.6478 16.6739C32.5429 16.8205 33.3647 17.258 33.9861 17.9187C34.0792 18.0181 34.1961 18.0921 34.3257 18.1338C34.4554 18.1756 34.5935 18.1836 34.7271 18.1572C34.9746 18.1077 35.2191 18.0507 35.4606 17.9847C35.3517 18.0662 35.2386 18.1418 35.1216 18.2112C34.9661 18.3065 34.8476 18.4519 34.7858 18.6235C34.724 18.7952 34.7224 18.9827 34.7815 19.1553C34.8405 19.3279 34.9566 19.4752 35.1106 19.573C35.2646 19.6708 35.4473 19.7132 35.6286 19.6932L35.9016 19.6587C35.7513 19.7826 35.5967 19.9011 35.4381 20.0142Z">
            </path>
        </g>
        <defs>
            <clipPath id="clip0_1_445">
                <rect width="48" height="48" transform="translate(0.864746 0.812988)"></rect>
            </clipPath>
        </defs>
    </symbol>
    <symbol xmlns="http://www.w3.org/2000/svg" viewBox="0 0 32 37" id="user">
        <path
            d="M16 18.5011C21.05 18.5011 25.1429 14.3593 25.1429 9.25054C25.1429 4.14179 21.05 0 16 0C10.95 0 6.85714 4.14179 6.85714 9.25054C6.85714 14.3593 10.95 18.5011 16 18.5011ZM19.6214 21.97H12.3786C5.54357 21.97 0 27.5782 0 34.4944C0 35.8776 1.10857 37 2.47571 37H29.5257C30.8929 37.0022 32 35.882 32 34.4944C32 27.5782 26.4571 21.97 19.6214 21.97Z">
        </path>
    </symbol>
    <symbol fill="none" xmlns="http://www.w3.org/2000/svg" viewBox="0 0 69 81" id="marketplace">
        <path
            d="M48.4803 0.38501V80.385L68.9269 64.0983V11.4983L48.4803 0.38501ZM38.9703 62.9117L22.5069 70.1017V7.33834L38.9703 12.2117V62.9117ZM0.396912 61.0683L12.9969 57.7383V17.6783L0.456912 15.6583L0.396912 61.0683Z"
            fill="#C59641"></path>
    </symbol>
    <symbol fill="none" xmlns="http://www.w3.org/2000/svg" viewBox="0 0 70 60" id="data-protection">
        <g clip-path="url(#clip0_1_374)">
            <path
                d="M60.52 59.999H8.79843C6.41888 59.999 4.38728 59.162 2.70363 57.4879C1.01998 55.8138 0.178162 53.7937 0.178162 51.4276V17.1419C0.178162 15.9812 0.593461 14.9767 1.42406 14.1285C2.25466 13.2803 3.27607 12.8562 4.48829 12.8562H36.8143C36.8143 12.5437 37.0725 11.9187 37.5888 10.9812C38.1051 10.0437 38.6102 9.17313 39.1041 8.36956L39.9122 7.23117C40.2265 6.38295 40.855 5.67983 41.7979 5.12179C42.7407 4.56376 43.7285 4.28474 44.7611 4.28474H60.9241C62.0016 4.28474 63.0118 4.56376 63.9547 5.12179C64.8975 5.67983 65.5261 6.38295 65.8404 7.23117C68.0403 10.0883 69.1403 11.9633 69.1403 12.8562V51.4276C69.1403 53.7937 68.2985 55.8138 66.6148 57.4879C64.9312 59.162 62.8996 59.999 60.52 59.999V59.999ZM43.2795 29.999C43.2795 27.633 42.4377 25.6129 40.754 23.9388C39.0704 22.2646 37.0388 21.4276 34.6592 21.4276C32.2797 21.4276 30.2481 22.2646 28.5644 23.9388C26.8808 25.6129 26.039 27.633 26.039 29.999C26.039 31.7401 26.5441 33.3361 27.5542 34.787C28.5644 36.2379 29.8777 37.2758 31.494 37.9008L26.039 51.4276H43.2795L37.8245 37.9008C39.4408 37.2758 40.754 36.2379 41.7642 34.787C42.7744 33.3361 43.2795 31.7401 43.2795 29.999ZM3.27607 2.94545C3.59035 2.09724 4.21891 1.39411 5.16175 0.836077C6.1046 0.278041 7.09233 -0.000976562 8.12497 -0.000976562H24.288C25.3655 -0.000976562 26.3757 0.278041 27.3185 0.836077C28.2614 1.39411 28.9124 2.09724 29.2716 2.94545L32.5042 8.57045H0.178162L3.27607 2.94545Z"
                fill="#04A8CC"></path>
        </g>
        <defs>
            <clipPath id="clip0_1_374">
                <rect width="69.0411" height="60" fill="white" transform="translate(0.138672 -0.000976562)"></rect>
            </clipPath>
        </defs>
    </symbol>
    <symbol fill="none" xmlns="http://www.w3.org/2000/svg" viewBox="0 0 64 68" id="money-protection">
        <path
            d="M27.3268 0.966064L51.6535 8.56607C52.332 8.77787 52.925 9.20101 53.3459 9.77369C53.7669 10.3464 53.9938 11.0386 53.9935 11.7494V17.6327H60.6602C61.5442 17.6327 62.3921 17.9839 63.0172 18.609C63.6423 19.2342 63.9935 20.082 63.9935 20.9661V27.6327H20.6602V20.9661C20.6602 20.082 21.0114 19.2342 21.6365 18.609C22.2616 17.9839 23.1094 17.6327 23.9935 17.6327H47.3268V14.1994L27.3268 7.94606L7.32682 14.1994V38.8794C7.32635 40.9202 7.79432 42.9338 8.69471 44.7652C9.59509 46.5966 10.9038 48.1968 12.5202 49.4427L13.1502 49.8961L27.3268 59.5661L39.9335 50.9661H23.9935C23.1094 50.9661 22.2616 50.6149 21.6365 49.9898C21.0114 49.3646 20.6602 48.5168 20.6602 47.6327V34.2994H63.9935V47.6327C63.9935 48.5168 63.6423 49.3646 63.0172 49.9898C62.3921 50.6149 61.5442 50.9661 60.6602 50.9661L49.9268 50.9694C48.6368 52.6694 47.0702 54.1694 45.2602 55.4027L27.3268 67.6327L9.39349 55.4061C6.7019 53.5709 4.49933 51.106 2.97729 48.2258C1.45525 45.3455 0.659819 42.1371 0.660156 38.8794V11.7494C0.660558 11.0392 0.887778 10.3477 1.3087 9.77568C1.72962 9.20366 2.32223 8.78104 3.00016 8.5694L27.3268 0.966064Z"
            fill="#CA4810"></path>
    </symbol>
    <symbol fill="none" xmlns="http://www.w3.org/2000/svg" viewBox="0 0 65 64" id="secure">
        <path
            d="M24.6602 23.9989H40.6602V21.3323C40.6602 19.2105 39.8173 17.1757 38.317 15.6754C36.8167 14.1751 34.7819 13.3323 32.6602 13.3323C30.5384 13.3323 28.5036 14.1751 27.0033 15.6754C25.503 17.1757 24.6602 19.2105 24.6602 21.3323V23.9989Z"
            fill="#00B17D"></path>
        <path d="M20.6602 34.6657H44.6602V31.999H20.6602V34.6657Z" fill="#00B17D"></path>
        <path d="M44.6602 41.3324H20.6602V38.6658H44.6602V41.3324Z" fill="#00B17D"></path>
        <path d="M20.6602 47.999H44.6602V45.3323H20.6602V47.999Z" fill="#00B17D"></path>
        <path fill-rule="evenodd" clip-rule="evenodd"
            d="M0.660156 -0.000976562H64.6602V63.999H0.660156V-0.000976562ZM15.3268 23.999C14.6196 23.999 13.9413 24.28 13.4412 24.7801C12.9411 25.2802 12.6602 25.9584 12.6602 26.6657V53.3324C12.6602 54.0396 12.9411 54.7179 13.4412 55.218C13.9413 55.7181 14.6196 55.999 15.3268 55.999H49.9935C50.7007 55.999 51.379 55.7181 51.8791 55.218C52.3792 54.7179 52.6602 54.0396 52.6602 53.3324V26.6657C52.6602 25.9584 52.3792 25.2802 51.8791 24.7801C51.379 24.28 50.7007 23.999 49.9935 23.999H45.9935V21.3324C45.9935 13.9684 40.0242 7.99902 32.6602 7.99902C25.2962 7.99902 19.3268 13.9684 19.3268 21.3324V23.999H15.3268Z"
            fill="#00B17D"></path>
    </symbol>
    <symbol xmlns="http://www.w3.org/2000/svg" viewBox="0 0 58 57" id="arrow">
        <path d="M29.0274 0.821288C36.6383 0.821288 43.9375 3.77128 49.3192 9.02229C54.7009 14.2733 57.7243 21.3952 57.7243 28.8213C57.7243 36.2473 54.7009 43.3693 49.3192 48.6203C43.9375 53.8713 36.6383 56.8213 29.0274 56.8213C21.4165 56.8213 14.1173 53.8713 8.73558 48.6203C3.35386 43.3693 0.330443 36.2474 0.330443 28.8213C0.330443 21.3952 3.35386 14.2733 8.73558 9.0223C14.1173 3.77128 21.4165 0.821288 29.0274 0.821288V0.821288ZM16.4725 27.0713C15.9968 27.0713 15.5406 27.2557 15.2042 27.5839C14.8679 27.912 14.6789 28.3572 14.6789 28.8213C14.6789 29.2854 14.8679 29.7305 15.2042 30.0587C15.5406 30.3869 15.9968 30.5713 16.4725 30.5713L37.2527 30.5713L29.5511 38.0823C29.2143 38.4109 29.0251 38.8566 29.0251 39.3213C29.0251 39.786 29.2143 40.2317 29.5511 40.5603C29.8879 40.8889 30.3447 41.0735 30.8209 41.0735C31.2972 41.0735 31.754 40.8889 32.0908 40.5603L42.8521 30.0603C43.0192 29.8977 43.1517 29.7046 43.2421 29.492C43.3325 29.2794 43.3791 29.0515 43.3791 28.8213C43.3791 28.5911 43.3325 28.3632 43.2421 28.1506C43.1517 27.938 43.0192 27.7448 42.8521 27.5823L32.0908 17.0823C31.754 16.7537 31.2972 16.5691 30.8209 16.5691C30.3447 16.5691 29.8879 16.7537 29.5511 17.0823C29.2143 17.4109 29.0251 17.8566 29.0251 18.3213C29.0251 18.786 29.2143 19.2317 29.5511 19.5603L37.2526 27.0713L16.4725 27.0713Z"></path>
    </symbol>
    <symbol xmlns="http://www.w3.org/2000/svg" viewBox="0 0 153 115" id="qoute">
        <path d="M70.3631 84.8862C70.541 88.9327 69.8041 92.9677 68.2047 96.7041C66.6053 100.441 64.1828 103.786 61.1097 106.503L61.0854 106.522C54.7239 112.035 46.4392 114.95 37.9423 114.664L37.9957 114.664C32.8598 114.935 27.7257 114.098 22.9582 112.212C18.1907 110.325 13.9067 107.436 10.4106 103.748L10.3911 103.729C3.38203 95.6003 -0.192981 85.1655 0.394177 74.5502L0.389309 74.65C0.0635788 63.6261 2.15998 52.6621 6.53716 42.4972L6.34277 43.0055C9.83773 35.0369 14.6849 27.7026 20.6797 21.3122L20.6262 21.3692C25.5814 16.1153 31.3231 11.6261 37.6555 8.05496L38.0054 7.87446C42.7949 5.17401 47.7932 2.84413 52.9547 0.906205L53.7128 0.654458L68.944 25.782C62.6147 28.2779 57.0591 32.3409 52.8235 37.5715L52.7603 37.6522C48.5428 42.5623 45.8976 48.5773 45.1545 54.947L45.1399 55.099C48.4542 55.1801 51.7135 55.9448 54.7044 57.3429C57.6952 58.7411 60.35 60.7411 62.4948 63.212L62.524 63.2452C67.9774 69.1799 70.7985 76.987 70.368 84.9527L70.3728 84.8815L70.3631 84.8862ZM152.73 84.8862C152.905 88.9328 152.166 92.9675 150.566 96.7036C148.966 100.44 146.544 103.786 143.472 106.503L143.447 106.522C137.087 112.037 128.801 114.952 120.304 114.664L120.358 114.664C115.222 114.937 110.087 114.1 105.319 112.213C100.552 110.327 96.2677 107.437 92.7724 103.748L92.753 103.725C85.741 95.5953 82.1656 85.1578 82.756 74.5407L82.7512 74.6405C82.4254 63.6166 84.5218 52.6526 88.899 42.4877L88.7046 42.996C92.1979 35.0276 97.0434 27.6933 103.037 21.3027L102.983 21.3597C107.94 16.1056 113.683 11.6165 120.017 8.04545L120.367 7.86495C125.156 5.16259 130.154 2.83266 135.317 0.896707L136.075 0.64496L151.301 25.7725C144.971 28.2714 139.415 32.3377 135.18 37.5715L135.117 37.6522C130.9 42.5623 128.255 48.5773 127.511 54.947L127.497 55.099C130.81 55.1796 134.068 55.9441 137.057 57.3424C140.047 58.7406 142.7 60.7409 144.842 63.212L144.871 63.2452C150.331 69.1754 153.157 76.9816 152.73 84.948L152.735 84.8767L152.73 84.8862Z"></path>
    </symbol>
</svg>